<mxfile host="app.diagrams.net" modified="2023-12-07T23:35:25.736Z" agent="Mozilla/5.0 (Windows NT 10.0; Win64; x64) AppleWebKit/537.36 (KHTML, like Gecko) Chrome/119.0.0.0 Safari/537.36" version="22.1.7" etag="rw--cX8G6-MMbBA9r-Oe" type="github">
  <diagram name="Halaman-1" id="xeq5yeHzmYvmwwsQXePR">
    <mxGraphModel>
      <root>
        <mxCell id="0" />
        <mxCell id="1" parent="0" />
      </root>
    </mxGraphModel>
  </diagram>
</mxfile>
